<svg version="1.1" id="Layer_1" xmlns="http://www.w3.org/2000/svg" xmlns:xlink="http://www.w3.org/1999/xlink" x="0px" y="0px"
	 width="100%" viewBox="0 0 1080 1080" enable-background="new 0 0 1080 1080" xml:space="preserve">
<path fill="#000000" opacity="1.000000" stroke="none" 
	d="
M739.000000,1081.000000 
	C492.695038,1081.000000 246.890076,1081.000000 1.042552,1081.000000 
	C1.042552,721.069885 1.042552,361.139832 1.042552,1.104865 
	C360.888519,1.104865 720.777100,1.104865 1080.832764,1.104865 
	C1080.832764,360.999939 1080.832764,720.999939 1080.832764,1081.000000 
	C967.139343,1081.000000 853.319641,1081.000000 739.000000,1081.000000 
M292.822906,279.537201 
	C292.536316,280.497528 292.249756,281.457886 291.254761,283.001678 
	C291.130219,283.281097 291.005707,283.560516 290.424438,284.113220 
	C290.171234,284.752258 289.918030,285.391266 289.541779,286.852386 
	C289.440216,289.179718 289.249969,291.507019 289.249725,293.834351 
	C289.234283,433.790710 289.232635,573.747070 289.246674,713.703430 
	C289.246948,716.364136 289.449860,719.024780 289.272980,722.167480 
	C289.419800,722.857605 289.566620,723.547791 290.011810,724.890747 
	C294.253448,735.738220 302.080231,740.676208 313.830902,740.513245 
	C335.151672,740.217529 356.480408,740.536438 377.804291,740.383545 
	C381.021362,740.360474 384.526947,739.792358 387.387665,738.414551 
	C396.317017,734.113708 401.026581,726.904053 401.023376,716.739441 
	C400.990417,612.111694 400.999908,507.483887 400.994324,402.856110 
	C400.993896,394.651703 404.191772,387.634583 411.251465,383.829163 
	C415.613617,381.477814 421.337891,380.831635 426.453339,380.821899 
	C515.253357,380.652893 604.053711,380.722382 692.853943,380.654449 
	C698.581421,380.650055 704.431885,380.388763 709.559448,376.010529 
	C715.571533,372.238831 719.037415,366.653992 719.106934,359.724518 
	C719.345032,335.994507 719.343201,312.258545 719.056519,288.529388 
	C718.984985,282.605560 716.237854,277.437469 710.383484,273.671143 
	C706.275208,268.794434 700.460083,268.182495 694.815918,268.173309 
	C622.682007,268.056061 550.547852,268.091461 478.413727,268.093811 
	C423.105377,268.095612 367.796600,267.996338 312.489227,268.233307 
	C304.479828,268.267578 296.764374,270.444489 292.975098,279.045319 
	C292.975098,279.045319 293.025299,279.102905 292.822906,279.537201 
M507.108002,682.500000 
	C507.097260,692.497009 507.293823,702.499878 507.014191,712.489380 
	C506.762390,721.483215 500.690369,727.266174 491.767517,727.581970 
	C488.438110,727.699768 485.103516,727.704834 481.771301,727.706116 
	C459.108887,727.714722 436.445984,727.621399 413.784210,727.739807 
	C400.013397,727.811768 393.690399,734.397400 393.708862,748.080139 
	C393.740570,771.575684 393.700562,795.071411 393.769501,818.566772 
	C393.810547,832.550110 399.876587,838.519348 414.016815,838.527222 
	C465.840332,838.556274 517.663818,838.540649 569.487366,838.547485 
	C646.473022,838.557556 723.458679,838.585571 800.444336,838.573059 
	C814.514404,838.570801 820.963074,832.063782 820.964600,818.122864 
	C820.969971,767.965576 820.981567,717.808228 820.984741,667.650940 
	C820.990601,575.334778 821.006287,483.018677 820.979614,390.702545 
	C820.975830,377.735748 814.449951,370.775360 802.026794,370.709747 
	C779.198425,370.589233 756.368591,370.643707 733.539978,370.744781 
	C727.999023,370.769318 722.585083,372.319702 719.695068,377.276672 
	C717.631470,380.816254 716.174377,385.252106 716.100403,389.318146 
	C715.709473,410.807098 715.893005,432.305817 715.774292,453.800598 
	C715.710938,465.267700 708.912354,472.074615 697.460754,472.360413 
	C694.463074,472.435211 691.462280,472.383362 688.462891,472.383667 
	C630.473938,472.389618 572.484009,472.570801 514.496704,472.263031 
	C501.672058,472.194946 495.459900,480.689148 495.339874,489.351074 
	C495.148285,503.179291 495.045013,517.015747 495.308441,530.841003 
	C495.502533,541.025391 502.293915,547.531921 512.361694,547.900940 
	C515.523987,548.016846 518.692871,547.969360 521.858704,547.970520 
	C551.853088,547.981934 581.847595,547.931946 611.841736,548.021973 
	C624.169678,548.058960 631.042114,555.058228 631.053833,567.225769 
	C631.070251,584.222595 631.063721,601.219421 631.063782,618.216248 
	C631.063843,632.466797 625.406921,638.374329 611.321350,638.416748 
	C583.493591,638.500549 555.665405,638.444885 527.837402,638.445984 
	C514.202881,638.446533 507.236145,645.329102 507.123047,659.004272 
	C507.061035,666.502380 507.108490,674.001404 507.108002,682.500000 
z"/>
<path fill="#864CFC" opacity="1.000000" stroke="none" 
	d="
M507.107300,682.000000 
	C507.108490,674.001404 507.061035,666.502380 507.123047,659.004272 
	C507.236145,645.329102 514.202881,638.446533 527.837402,638.445984 
	C555.665405,638.444885 583.493591,638.500549 611.321350,638.416748 
	C625.406921,638.374329 631.063843,632.466797 631.063782,618.216248 
	C631.063721,601.219421 631.070251,584.222595 631.053833,567.225769 
	C631.042114,555.058228 624.169678,548.058960 611.841736,548.021973 
	C581.847595,547.931946 551.853088,547.981934 521.858704,547.970520 
	C518.692871,547.969360 515.523987,548.016846 512.361694,547.900940 
	C502.293915,547.531921 495.502533,541.025391 495.308441,530.841003 
	C495.045013,517.015747 495.148285,503.179291 495.339874,489.351074 
	C495.459900,480.689148 501.672058,472.194946 514.496704,472.263031 
	C572.484009,472.570801 630.473938,472.389618 688.462891,472.383667 
	C691.462280,472.383362 694.463074,472.435211 697.460754,472.360413 
	C708.912354,472.074615 715.710938,465.267700 715.774292,453.800598 
	C715.893005,432.305817 715.709473,410.807098 716.100403,389.318146 
	C716.174377,385.252106 717.631470,380.816254 719.695068,377.276672 
	C722.585083,372.319702 727.999023,370.769318 733.539978,370.744781 
	C756.368591,370.643707 779.198425,370.589233 802.026794,370.709747 
	C814.449951,370.775360 820.975830,377.735748 820.979614,390.702545 
	C821.006287,483.018677 820.990601,575.334778 820.984741,667.650940 
	C820.981567,717.808228 820.969971,767.965576 820.964600,818.122864 
	C820.963074,832.063782 814.514404,838.570801 800.444336,838.573059 
	C723.458679,838.585571 646.473022,838.557556 569.487366,838.547485 
	C517.663818,838.540649 465.840332,838.556274 414.016815,838.527222 
	C399.876587,838.519348 393.810547,832.550110 393.769501,818.566772 
	C393.700562,795.071411 393.740570,771.575684 393.708862,748.080139 
	C393.690399,734.397400 400.013397,727.811768 413.784210,727.739807 
	C436.445984,727.621399 459.108887,727.714722 481.771301,727.706116 
	C485.103516,727.704834 488.438110,727.699768 491.767517,727.581970 
	C500.690369,727.266174 506.762390,721.483215 507.014191,712.489380 
	C507.293823,702.499878 507.097260,692.497009 507.107300,682.000000 
z"/>
<path fill="#6FDAB6" opacity="1.000000" stroke="none" 
	d="
M289.558228,721.685486 
	C289.449860,719.024780 289.246948,716.364136 289.246674,713.703430 
	C289.232635,573.747070 289.234283,433.790710 289.249725,293.834351 
	C289.249969,291.507019 289.440216,289.179718 289.946777,286.330109 
	C290.528229,285.151855 290.704712,284.495880 290.881165,283.839935 
	C291.005707,283.560516 291.130219,283.281097 291.706238,282.486023 
	C292.446930,281.014557 292.736115,280.058716 293.025299,279.102905 
	C293.025299,279.102905 292.975098,279.045319 293.310669,279.014343 
	C294.055603,278.972473 294.464966,278.961639 294.895752,279.354340 
	C291.383148,289.360901 291.971985,299.364746 291.973297,309.327393 
	C291.990967,443.956329 291.984711,578.585266 291.984802,713.214172 
	C291.984833,714.547119 292.004211,715.880188 291.992188,717.213013 
	C291.894409,728.056519 303.186371,738.677490 313.555328,738.278137 
	C335.183807,737.445129 356.866852,738.065552 378.527313,738.010010 
	C388.263824,737.985046 397.292938,729.770630 397.934296,720.199890 
	C398.489807,711.910156 398.952362,703.593750 398.927185,695.290771 
	C398.892975,683.986267 398.117462,672.683533 398.105133,661.379639 
	C398.093872,651.076233 398.850891,640.773560 398.931946,630.467957 
	C398.980225,624.332581 398.090729,618.190186 398.132660,612.054382 
	C398.200775,602.081909 398.860474,592.113525 398.931610,582.140991 
	C398.974182,576.171997 398.080688,570.196228 398.124756,564.227295 
	C398.199646,554.088257 398.852631,543.953491 398.929535,533.814453 
	C398.974854,527.845520 398.090546,521.869568 398.134277,515.900574 
	C398.208588,505.761536 398.782074,495.627167 398.963287,485.487610 
	C399.111176,477.212433 399.015228,468.932373 398.981995,460.654663 
	C398.966644,456.826324 398.862183,452.997894 398.764587,449.170349 
	C398.561310,441.195343 398.151733,433.220428 398.174683,425.246429 
	C398.194733,418.273590 399.338165,411.246857 398.748749,404.349579 
	C398.357697,399.773285 398.911926,395.744781 400.943695,391.969971 
	C404.466858,385.424255 408.567596,379.312073 417.192505,379.036926 
	C427.332397,378.713501 437.471558,378.100250 447.611572,378.089447 
	C524.090027,378.007874 600.568604,378.037903 677.047180,378.049194 
	C687.800415,378.050781 698.667236,379.333008 709.016602,375.282227 
	C709.039124,375.748627 709.049011,375.935150 709.058899,376.121704 
	C704.431885,380.388763 698.581421,380.650055 692.853943,380.654449 
	C604.053711,380.722382 515.253357,380.652893 426.453339,380.821899 
	C421.337891,380.831635 415.613617,381.477814 411.251465,383.829163 
	C404.191772,387.634583 400.993896,394.651703 400.994324,402.856110 
	C400.999908,507.483887 400.990417,612.111694 401.023376,716.739441 
	C401.026581,726.904053 396.317017,734.113708 387.387665,738.414551 
	C384.526947,739.792358 381.021362,740.360474 377.804291,740.383545 
	C356.480408,740.536438 335.151672,740.217529 313.830902,740.513245 
	C302.080231,740.676208 294.253448,735.738220 289.957062,724.135986 
	C289.787628,722.815918 289.672913,722.250732 289.558228,721.685486 
z"/>
<path fill="#71CEAD" opacity="1.000000" stroke="none" 
	d="
M294.874329,278.950775 
	C294.464966,278.961639 294.055603,278.972473 293.339172,278.988922 
	C296.764374,270.444489 304.479828,268.267578 312.489227,268.233307 
	C367.796600,267.996338 423.105377,268.095612 478.413727,268.093811 
	C550.547852,268.091461 622.682007,268.056061 694.815918,268.173309 
	C700.460083,268.182495 706.275208,268.794434 710.522095,274.007690 
	C710.660645,274.344238 710.521667,274.479401 710.180420,274.337585 
	C704.835449,273.104095 699.832886,271.065643 694.827698,271.059143 
	C567.802673,270.893860 440.777313,270.987244 313.752258,270.841278 
	C305.963409,270.832306 299.856171,273.191010 294.874329,278.950775 
z"/>
<path fill="#71CEAD" opacity="1.000000" stroke="none" 
	d="
M709.309204,376.066101 
	C709.049011,375.935150 709.039124,375.748627 709.202576,375.004547 
	C711.951477,369.959015 714.527100,365.471008 717.309326,360.631042 
	C717.682373,359.142426 717.992249,358.005920 717.993835,356.869019 
	C718.022888,335.682373 718.032959,314.495667 717.976379,293.309143 
	C717.972534,291.877960 717.408936,290.448273 717.071045,288.662415 
	C716.697998,287.173065 716.359497,286.039154 716.023438,284.589050 
	C716.008972,283.850922 715.992126,283.428986 715.890442,282.673737 
	C714.044250,279.720093 712.282959,277.099762 710.521667,274.479431 
	C710.521667,274.479401 710.660645,274.344238 710.731567,274.278198 
	C716.237854,277.437469 718.984985,282.605560 719.056519,288.529388 
	C719.343201,312.258545 719.345032,335.994507 719.106934,359.724518 
	C719.037415,366.653992 715.571533,372.238831 709.309204,376.066101 
z"/>
<path fill="#71CEAD" opacity="1.000000" stroke="none" 
	d="
M292.924103,279.320068 
	C292.736115,280.058716 292.446930,281.014557 292.060486,282.194275 
	C292.249756,281.457886 292.536316,280.497528 292.924103,279.320068 
z"/>
<path fill="#3C8B71" opacity="1.000000" stroke="none" 
	d="
M290.652802,283.976562 
	C290.704712,284.495880 290.528229,285.151855 290.008301,285.919067 
	C289.918030,285.391266 290.171234,284.752258 290.652802,283.976562 
z"/>
<path fill="#3C8B71" opacity="1.000000" stroke="none" 
	d="
M289.415588,721.926514 
	C289.672913,722.250732 289.787628,722.815918 289.807861,723.809570 
	C289.566620,723.547791 289.419800,722.857605 289.415588,721.926514 
z"/>
<path fill="#58F5C2" opacity="1.000000" stroke="none" 
	d="
M717.102722,360.983002 
	C714.527100,365.471008 711.951477,369.959015 709.189819,374.724670 
	C698.667236,379.333008 687.800415,378.050781 677.047180,378.049194 
	C600.568604,378.037903 524.090027,378.007874 447.611572,378.089447 
	C437.471558,378.100250 427.332397,378.713501 417.192505,379.036926 
	C408.567596,379.312073 404.466858,385.424255 400.943695,391.969971 
	C398.911926,395.744781 398.357697,399.773285 398.748749,404.349579 
	C399.338165,411.246857 398.194733,418.273590 398.174683,425.246429 
	C398.151733,433.220428 398.561310,441.195343 398.764587,449.170349 
	C398.862183,452.997894 398.966644,456.826324 398.981995,460.654663 
	C399.015228,468.932373 399.111176,477.212433 398.963287,485.487610 
	C398.782074,495.627167 398.208588,505.761536 398.134277,515.900574 
	C398.090546,521.869568 398.974854,527.845520 398.929535,533.814453 
	C398.852631,543.953491 398.199646,554.088257 398.124756,564.227295 
	C398.080688,570.196228 398.974182,576.171997 398.931610,582.140991 
	C398.860474,592.113525 398.200775,602.081909 398.132660,612.054382 
	C398.090729,618.190186 398.980225,624.332581 398.931946,630.467957 
	C398.850891,640.773560 398.093872,651.076233 398.105133,661.379639 
	C398.117462,672.683533 398.892975,683.986267 398.927185,695.290771 
	C398.952362,703.593750 398.489807,711.910156 397.934296,720.199890 
	C397.292938,729.770630 388.263824,737.985046 378.527313,738.010010 
	C356.866852,738.065552 335.183807,737.445129 313.555328,738.278137 
	C303.186371,738.677490 291.894409,728.056519 291.992188,717.213013 
	C292.004211,715.880188 291.984833,714.547119 291.984802,713.214172 
	C291.984711,578.585266 291.990967,443.956329 291.973297,309.327393 
	C291.971985,299.364746 291.383148,289.360901 294.895752,279.354340 
	C299.856171,273.191010 305.963409,270.832306 313.752258,270.841278 
	C440.777313,270.987244 567.802673,270.893860 694.827698,271.059143 
	C699.832886,271.065643 704.835449,273.104095 710.180420,274.337585 
	C712.282959,277.099762 714.044250,279.720093 715.741821,282.844086 
	C715.792358,283.866882 715.906738,284.386047 716.021118,284.905212 
	C716.359497,286.039154 716.697998,287.173065 717.044434,289.127228 
	C717.069214,313.625977 717.085999,337.304474 717.102722,360.983002 
z"/>
<path fill="#6FDAB6" opacity="1.000000" stroke="none" 
	d="
M717.309326,360.631042 
	C717.085999,337.304474 717.069214,313.625977 717.079102,289.482666 
	C717.408936,290.448273 717.972534,291.877960 717.976379,293.309143 
	C718.032959,314.495667 718.022888,335.682373 717.993835,356.869019 
	C717.992249,358.005920 717.682373,359.142426 717.309326,360.631042 
z"/>
<path fill="#6FDAB6" opacity="1.000000" stroke="none" 
	d="
M716.023438,284.589050 
	C715.906738,284.386047 715.792358,283.866882 715.826660,283.177399 
	C715.992126,283.428986 716.008972,283.850922 716.023438,284.589050 
z"/>
</svg>